<svg width="15" height="16" viewBox="0 0 15 16" fill="none" xmlns="http://www.w3.org/2000/svg">
<g id="Frame" clip-path="url(#clip0_338_613)">
<g id="Group">
<path id="Vector" d="M1.31836 0.5C0.591416 0.5 0 1.09142 0 1.81836V7.17969H6.67969V0.5H1.31836ZM4.36523 4.2793H3.7793V4.86523C3.7793 5.10793 3.58254 5.30469 3.33984 5.30469C3.09715 5.30469 2.90039 5.10793 2.90039 4.86523V4.2793H2.31445C2.07176 4.2793 1.875 4.08254 1.875 3.83984C1.875 3.59715 2.07176 3.40039 2.31445 3.40039H2.90039V2.81445C2.90039 2.57176 3.09715 2.375 3.33984 2.375C3.58254 2.375 3.7793 2.57176 3.7793 2.81445V3.40039H4.36523C4.60793 3.40039 4.80469 3.59715 4.80469 3.83984C4.80469 4.08254 4.60793 4.2793 4.36523 4.2793ZM13.999 7.17969H14.2383V1.81836C14.2383 1.09142 13.6469 0.5 12.9199 0.5H7.55859V7.02119C8.4283 6.36685 9.50898 5.97852 10.6787 5.97852C11.94 5.97852 13.0977 6.43001 13.999 7.17969ZM9.43359 3.83984C9.43359 3.59715 9.63035 3.40039 9.87305 3.40039H11.9238C12.1665 3.40039 12.3633 3.59715 12.3633 3.83984C12.3633 4.08254 12.1665 4.2793 11.9238 4.2793H9.87305C9.63035 4.2793 9.43359 4.08254 9.43359 3.83984ZM6.52119 8.05859H0V13.4199C0 14.1469 0.591416 14.7383 1.31836 14.7383H6.67969V14.499C5.93001 13.5977 5.47852 12.44 5.47852 11.1787C5.47852 10.009 5.86685 8.9283 6.52119 8.05859ZM4.38299 11.8201C4.55461 11.9918 4.55461 12.27 4.38299 12.4416C4.29721 12.5274 4.18474 12.5703 4.07227 12.5703C3.95979 12.5703 3.84732 12.5274 3.76154 12.4416L3.33984 12.0199L2.91814 12.4416C2.83236 12.5274 2.71989 12.5703 2.60742 12.5703C2.49495 12.5703 2.38248 12.5274 2.2967 12.4416C2.12508 12.27 2.12508 11.9917 2.2967 11.8201L2.71837 11.3984L2.29667 10.9767C2.12505 10.8051 2.12505 10.5269 2.29667 10.3553C2.46826 10.1836 2.74652 10.1836 2.91814 10.3553L3.33984 10.777L3.76154 10.3553C3.93313 10.1836 4.2114 10.1836 4.38302 10.3553C4.55464 10.5269 4.55464 10.8051 4.38302 10.9767L3.96132 11.3984L4.38299 11.8201Z" fill="#0C0830"/>
<path id="Vector_2" d="M10.6787 6.85742C8.29594 6.85742 6.35742 8.79594 6.35742 11.1787C6.35742 13.5615 8.29594 15.5 10.6787 15.5C13.0615 15.5 15 13.5615 15 11.1787C15 8.79594 13.0615 6.85742 10.6787 6.85742ZM11.7041 12.3506H9.65332C9.41062 12.3506 9.21387 12.1538 9.21387 11.9111C9.21387 11.6684 9.41062 11.4717 9.65332 11.4717H11.7041C11.9468 11.4717 12.1436 11.6684 12.1436 11.9111C12.1436 12.1538 11.9468 12.3506 11.7041 12.3506ZM11.7041 10.8857H9.65332C9.41062 10.8857 9.21387 10.689 9.21387 10.4463C9.21387 10.2036 9.41062 10.0068 9.65332 10.0068H11.7041C11.9468 10.0068 12.1436 10.2036 12.1436 10.4463C12.1436 10.689 11.9468 10.8857 11.7041 10.8857Z" fill="#0C0830"/>
</g>
</g>
<defs>
<clipPath id="clip0_338_613">
<rect width="15" height="15" fill="white" transform="translate(0 0.5)"/>
</clipPath>
</defs>
</svg>
