<svg width="16" height="16" viewBox="0 0 16 16" fill="none" xmlns="http://www.w3.org/2000/svg">
<g id="database">
<g id="Vector">
<path d="M2 10.4875V12.0002C2 13.7508 5.018 14.6668 8 14.6668C10.982 14.6668 14 13.7508 14 12.0002V10.4875C12.554 11.5682 10.1633 12.0002 8 12.0002C5.83667 12.0002 3.446 11.5682 2 10.4875Z" fill="#0C0830"/>
<path d="M2 6.4875V8.00016C2 9.75083 5.018 10.6668 8 10.6668C10.982 10.6668 14 9.75083 14 8.00016V6.4875C12.554 7.56816 10.1633 8.00016 8 8.00016C5.83667 8.00016 3.446 7.56816 2 6.4875Z" fill="#0C0830"/>
<path d="M8 6.66683C11.3137 6.66683 14 5.47292 14 4.00016C14 2.5274 11.3137 1.3335 8 1.3335C4.68629 1.3335 2 2.5274 2 4.00016C2 5.47292 4.68629 6.66683 8 6.66683Z" fill="#0C0830"/>
</g>
</g>
</svg>
