<svg width="16" height="16" viewBox="0 0 16 16" fill="none" xmlns="http://www.w3.org/2000/svg">
<g id="Frame">
<g id="Group">
<path id="Vector" d="M6.09375 7.53125C6.35219 7.53125 6.5625 7.74156 6.5625 8C6.5625 8.25844 6.35219 8.46875 6.09375 8.46875C5.83531 8.46875 5.625 8.25844 5.625 8C5.625 7.74156 5.83531 7.53125 6.09375 7.53125Z" fill="#0C0830"/>
<path id="Vector_2" d="M6.5625 5.70312V6.67438C6.41202 6.62086 6.25346 6.59359 6.09375 6.59375C5.31844 6.59375 4.6875 7.22469 4.6875 8C4.6875 8.77531 5.31844 9.40625 6.09375 9.40625C6.25813 9.40625 6.41594 9.37781 6.5625 9.32563V10.2969C6.40906 10.3281 6.25219 10.3438 6.09375 10.3438C4.80156 10.3438 3.75 9.29219 3.75 8C3.75 6.70781 4.80156 5.65625 6.09375 5.65625C6.25219 5.65625 6.40906 5.67188 6.5625 5.70312Z" fill="#0C0830"/>
<path id="Vector_3" d="M2.8125 8C2.8125 9.80937 4.28438 11.2812 6.09375 11.2812C6.25156 11.2812 6.40812 11.2703 6.5625 11.2478V14.0938H5.15625C4.8975 14.0938 4.6875 13.8837 4.6875 13.625V12.9613C4.30406 12.8522 3.93437 12.6978 3.58219 12.5L3.11063 12.9719C2.9275 13.155 2.63094 13.155 2.44781 12.9719L1.12188 11.6459C0.938688 11.4628 0.939406 11.1656 1.12188 10.9831L1.59375 10.5112C1.397 10.1624 1.24218 9.79147 1.1325 9.40625H0.46875C0.21 9.40625 0 9.19625 0 8.9375V7.0625C0 6.80375 0.21 6.59375 0.46875 6.59375H1.1325C1.24156 6.21031 1.39562 5.84063 1.59375 5.48844L1.12188 5.01687C0.939406 4.83441 0.938688 4.53725 1.12188 4.35406L2.44781 3.02813C2.63094 2.845 2.9275 2.845 3.11063 3.02813L3.5825 3.5C3.93138 3.30325 4.30228 3.14843 4.6875 3.03875V2.375C4.6875 2.11625 4.8975 1.90625 5.15625 1.90625H6.5625V4.75219C6.40812 4.72969 6.25156 4.71875 6.09375 4.71875C4.28438 4.71875 2.8125 6.19063 2.8125 8ZM13.1875 2.18062V4.71875H15.7256L13.1875 2.18062ZM8.90625 4.71875H10.8438C11.1025 4.71875 11.3125 4.92875 11.3125 5.1875C11.3125 5.44625 11.1025 5.65625 10.8438 5.65625H8.90625C8.6475 5.65625 8.4375 5.44625 8.4375 5.1875C8.4375 4.92875 8.6475 4.71875 8.90625 4.71875ZM13.6562 11.2812H8.90625C8.6475 11.2812 8.4375 11.0712 8.4375 10.8125C8.4375 10.5538 8.6475 10.3438 8.90625 10.3438H13.6562C13.915 10.3438 14.125 10.5538 14.125 10.8125C14.125 11.0712 13.915 11.2812 13.6562 11.2812ZM13.6562 9.40625H8.90625C8.6475 9.40625 8.4375 9.19625 8.4375 8.9375C8.4375 8.67875 8.6475 8.46875 8.90625 8.46875H13.6562C13.915 8.46875 14.125 8.67875 14.125 8.9375C14.125 9.19625 13.915 9.40625 13.6562 9.40625ZM13.6562 7.53125H8.90625C8.6475 7.53125 8.4375 7.32125 8.4375 7.0625C8.4375 6.80375 8.6475 6.59375 8.90625 6.59375H13.6562C13.915 6.59375 14.125 6.80375 14.125 7.0625C14.125 7.32125 13.915 7.53125 13.6562 7.53125ZM12.7188 5.65625C12.46 5.65625 12.25 5.44625 12.25 5.1875V1.90625H7.5V14.0938H15.5312C15.79 14.0938 16 13.8837 16 13.625V5.65625H12.7188Z" fill="#0C0830"/>
</g>
</g>
</svg>
