<svg width="16" height="16" viewBox="0 0 16 16" fill="none" xmlns="http://www.w3.org/2000/svg">
<g id="clipboard-list">
<path id="Vector" d="M12.6667 2.00016H10.4813C10.3652 1.79814 10.1981 1.63019 9.99656 1.51318C9.79507 1.39616 9.56634 1.3342 9.33333 1.3335H6.66667C6.43366 1.3342 6.20493 1.39616 6.00344 1.51318C5.80194 1.63019 5.63476 1.79814 5.51867 2.00016H3.33333C2.97971 2.00016 2.64057 2.14064 2.39052 2.39069C2.14048 2.64074 2 2.97987 2 3.3335V13.3335C2 13.6871 2.14048 14.0263 2.39052 14.2763C2.64057 14.5264 2.97971 14.6668 3.33333 14.6668H12.6667C13.0203 14.6668 13.3594 14.5264 13.6095 14.2763C13.8595 14.0263 14 13.6871 14 13.3335V3.3335C14 2.97987 13.8595 2.64074 13.6095 2.39069C13.3594 2.14064 13.0203 2.00016 12.6667 2.00016ZM6.66667 2.66683H9.33333V4.00016H6.66667V2.66683ZM5.33333 11.3335C5.20148 11.3335 5.07259 11.2944 4.96295 11.2211C4.85332 11.1479 4.76787 11.0438 4.71741 10.922C4.66696 10.8001 4.65375 10.6661 4.67948 10.5368C4.7052 10.4074 4.76869 10.2887 4.86193 10.1954C4.95516 10.1022 5.07395 10.0387 5.20327 10.013C5.33259 9.98725 5.46664 10.0005 5.58846 10.0509C5.71027 10.1014 5.81439 10.1868 5.88765 10.2964C5.9609 10.4061 6 10.535 6 10.6668C6 10.8436 5.92976 11.0132 5.80474 11.1382C5.67971 11.2633 5.51014 11.3335 5.33333 11.3335ZM5.33333 8.66683C5.20148 8.66683 5.07259 8.62773 4.96295 8.55448C4.85332 8.48122 4.76787 8.3771 4.71741 8.25529C4.66696 8.13347 4.65375 7.99942 4.67948 7.8701C4.7052 7.74078 4.76869 7.62199 4.86193 7.52876C4.95516 7.43552 5.07395 7.37203 5.20327 7.34631C5.33259 7.32058 5.46664 7.33378 5.58846 7.38424C5.71027 7.4347 5.81439 7.52015 5.88765 7.62978C5.9609 7.73942 6 7.86831 6 8.00016C6 8.17697 5.92976 8.34654 5.80474 8.47157C5.67971 8.59659 5.51014 8.66683 5.33333 8.66683ZM10.6667 11.3335H7.33333C7.15652 11.3335 6.98695 11.2633 6.86193 11.1382C6.7369 11.0132 6.66667 10.8436 6.66667 10.6668C6.66667 10.49 6.7369 10.3204 6.86193 10.1954C6.98695 10.0704 7.15652 10.0002 7.33333 10.0002H10.6667C10.8435 10.0002 11.013 10.0704 11.1381 10.1954C11.2631 10.3204 11.3333 10.49 11.3333 10.6668C11.3333 10.8436 11.2631 11.0132 11.1381 11.1382C11.013 11.2633 10.8435 11.3335 10.6667 11.3335ZM10.6667 8.66683H7.33333C7.15652 8.66683 6.98695 8.59659 6.86193 8.47157C6.7369 8.34654 6.66667 8.17697 6.66667 8.00016C6.66667 7.82335 6.7369 7.65378 6.86193 7.52876C6.98695 7.40373 7.15652 7.3335 7.33333 7.3335H10.6667C10.8435 7.3335 11.013 7.40373 11.1381 7.52876C11.2631 7.65378 11.3333 7.82335 11.3333 8.00016C11.3333 8.17697 11.2631 8.34654 11.1381 8.47157C11.013 8.59659 10.8435 8.66683 10.6667 8.66683Z" fill="#0C0830"/>
</g>
</svg>
