<svg width="16" height="16" viewBox="0 0 16 16" fill="none" xmlns="http://www.w3.org/2000/svg">
<g id="Frame" clip-path="url(#clip0_338_622)">
<g id="Group">
<path id="Vector" d="M12.5159 10.3393C11.8822 11.2096 10.8558 11.7764 9.69936 11.7764H8.07669C7.51615 11.7764 7.0388 11.4205 6.85804 10.9224C6.63256 10.855 6.41328 10.7683 6.20261 10.6634C5.75046 10.4387 5.3399 10.1344 4.97849 9.75732C2.63419 10.2723 0.879639 12.3612 0.879639 14.8602V15.1869C0.879639 15.6359 1.24366 15.9999 1.69268 15.9999H14.3071C14.7561 15.9999 15.1201 15.6359 15.1201 15.1869V14.8602C15.1201 12.9297 14.073 11.2439 12.5159 10.3393Z" fill="#0C0830"/>
<path id="Vector_2" d="M4.11426 8.08159C4.46369 8.08159 4.76784 7.88792 4.92542 7.60211C4.92956 7.61343 4.93377 7.62467 4.93802 7.63591L4.94178 7.64604C5.31143 8.61905 6.0307 9.43474 6.97914 9.79114C7.20853 9.42666 7.61414 9.18426 8.07663 9.18426H9.6993C9.86115 9.18426 10.0118 9.1386 10.1439 9.06477C10.3657 8.94075 10.5651 8.62612 10.6681 8.45936C10.8329 8.19249 10.9606 7.90981 11.0739 7.60163C11.1374 7.71691 11.2246 7.81741 11.3298 7.89648V8.29437C11.3298 9.19345 10.5984 9.92494 9.69926 9.92494H8.0766C7.76983 9.92494 7.52113 10.1736 7.52113 10.4804C7.52113 10.7872 7.76983 11.0359 8.0766 11.0359H9.69926C11.2109 11.0359 12.4408 9.80603 12.4408 8.29437V7.89648C12.6656 7.72756 12.8111 7.4587 12.8111 7.15584V4.83866C12.8111 4.52956 12.6595 4.25608 12.4267 4.08792C12.2462 1.8036 10.3297 0 7.99977 0C5.66981 0 3.75334 1.8036 3.57282 4.08789C3.34006 4.25605 3.18848 4.52956 3.18848 4.83862V7.15577C3.18848 7.66853 3.60502 8.08159 4.11426 8.08159ZM7.99977 1.11096C9.72457 1.11096 11.1472 2.42906 11.3135 4.11086C11.2037 4.19713 11.1147 4.30704 11.0533 4.43242C10.5291 3.06496 9.35912 2.1129 7.99974 2.1129C6.61105 2.1129 5.45979 3.09768 4.94825 4.42695L4.9462 4.43245C4.88473 4.30708 4.7958 4.19717 4.68601 4.1109C4.85239 2.42906 6.27498 1.11096 7.99977 1.11096Z" fill="#0C0830"/>
</g>
</g>
<defs>
<clipPath id="clip0_338_622">
<rect width="16" height="16" fill="white"/>
</clipPath>
</defs>
</svg>
