<svg width="23" height="28" viewBox="0 0 23 28" fill="none" xmlns="http://www.w3.org/2000/svg">
<g id="Isolation_Mode" clip-path="url(#clip0_576_643)">
<g id="Group">
<path id="Vector" d="M3.66282 22.2272C4.31357 21.5734 4.31357 20.5135 3.66282 19.8597C3.01206 19.206 1.95698 19.206 1.30623 19.8597C0.655471 20.5135 0.655471 21.5734 1.30623 22.2272C1.95698 22.8809 3.01206 22.8809 3.66282 22.2272Z" fill="#F15642"/>
<path id="Vector_2" d="M2.48456 23.0372C1.39046 23.0372 0.5 22.1426 0.5 21.0435C0.5 19.9444 1.39046 19.0498 2.48456 19.0498C3.57866 19.0498 4.46912 19.9444 4.46912 21.0435C4.46912 22.1426 3.57866 23.0372 2.48456 23.0372ZM2.48456 19.6891C1.74096 19.6891 1.13639 20.2965 1.13639 21.0435C1.13639 21.7905 1.74096 22.3978 2.48456 22.3978C3.22815 22.3978 3.83273 21.7905 3.83273 21.0435C3.83273 20.2965 3.22815 19.6891 2.48456 19.6891Z" fill="#231F20"/>
</g>
<g id="Group_2">
<path id="Vector_3" d="M14.7145 0.319824H6.60642C4.39325 0.319824 2.59961 2.1222 2.59961 4.34505V23.6553C2.59961 25.8786 4.39374 27.6805 6.60642 27.6805H18.174C20.3872 27.6805 22.1808 25.8781 22.1808 23.6553V7.82046L14.7145 0.319824Z" fill="white"/>
<path id="Vector_4" d="M18.1739 28H6.60625C4.22126 28 2.28125 26.0511 2.28125 23.6551V4.34488C2.28125 1.94893 4.22126 0 6.60625 0H14.7144C14.7985 0 14.8798 0.0334411 14.9395 0.0934383L22.4054 7.59407C22.4651 7.65407 22.4984 7.73521 22.4984 7.82029V23.6556C22.4984 26.0516 20.5584 28.0005 18.1734 28.0005L18.1739 28ZM6.60625 0.639314C4.57225 0.639314 2.91764 2.30153 2.91764 4.34488V23.6551C2.91764 25.6985 4.57225 27.3607 6.60625 27.3607H18.1739C20.2079 27.3607 21.8625 25.6985 21.8625 23.6551V7.95258L14.5827 0.639314H6.60625Z" fill="#231F20"/>
</g>
<g id="Group_3">
<path id="Vector_5" d="M14.7148 0.319824L22.1812 7.82046H16.3073C15.4281 7.82046 14.7148 7.10442 14.7148 6.2207V0.319824Z" fill="#DCDDDE"/>
<path id="Vector_6" d="M22.182 8.14006C22.182 8.14006 22.1815 8.14006 22.181 8.14006H16.3071C15.2537 8.14006 14.3965 7.27895 14.3965 6.22064V0.319768C14.3965 0.190429 14.4738 0.0738774 14.5928 0.0242076C14.7117 -0.0249704 14.8483 0.00207752 14.9394 0.0935486L22.391 7.57943C22.4576 7.63795 22.4997 7.72401 22.4997 7.81991C22.4997 7.99646 22.3572 8.13957 22.1815 8.13957L22.182 8.14006ZM15.0329 1.09137V6.22064C15.0329 6.92634 15.6042 7.50074 16.3071 7.50074H21.4129L15.0329 1.09137Z" fill="#231F20"/>
</g>
<g id="Group_4">
<path id="Vector_7" d="M2.6369 11.3906C1.64707 11.3906 0.844727 12.1967 0.844727 13.191V20.7305H0.877525C1.03711 19.9004 1.76358 19.2729 2.6369 19.2729H20.6849V11.3906H2.6369Z" fill="#F15642"/>
<path id="Vector_8" d="M0.877361 21.05H0.844562C0.668821 21.05 0.526367 20.9069 0.526367 20.7303V13.1909C0.526367 12.0219 1.47312 11.0708 2.63673 11.0708H20.6848C20.8605 11.0708 21.0029 11.2139 21.0029 11.3905V19.2727C21.0029 19.4493 20.8605 19.5924 20.6848 19.5924H2.63673C1.93181 19.5924 1.32332 20.0964 1.18968 20.7908C1.1608 20.9413 1.0296 21.05 0.877361 21.05ZM2.63673 11.7101C1.82411 11.7101 1.16276 12.3745 1.16276 13.1909V19.5565C1.54655 19.1807 2.06986 18.9531 2.63673 18.9531H20.3666V11.7101H2.63673Z" fill="#231F20"/>
</g>
</g>
<defs>
<clipPath id="clip0_576_643">
<rect width="22" height="28" fill="white" transform="translate(0.5)"/>
</clipPath>
</defs>
</svg>
