<svg width="176" height="32" viewBox="0 0 176 32" fill="none" xmlns="http://www.w3.org/2000/svg">
<g id="Logo">
<path d="M62.16 13.26H65.544L65.688 15.744C66.192 14.784 66.924 14.04 67.884 13.512C68.844 12.984 69.948 12.72 71.196 12.72C73.788 12.72 75.516 13.824 76.38 16.032C76.932 14.976 77.712 14.16 78.72 13.584C79.752 13.008 80.952 12.72 82.32 12.72C84.312 12.72 85.86 13.344 86.964 14.592C88.068 15.816 88.62 17.556 88.62 19.812V30H84.984V20.244C84.984 18.828 84.684 17.76 84.084 17.04C83.508 16.296 82.668 15.924 81.564 15.924C80.244 15.924 79.188 16.416 78.396 17.4C77.628 18.384 77.244 19.704 77.244 21.36V30H73.608V20.244C73.608 17.364 72.444 15.924 70.116 15.924C68.796 15.924 67.74 16.416 66.948 17.4C66.18 18.384 65.796 19.704 65.796 21.36V30H62.16V13.26Z" fill="#0C0830"/>
<path d="M91.9883 21.576C91.9883 19.896 92.3723 18.396 93.1403 17.076C93.9323 15.732 95.0003 14.676 96.3443 13.908C97.6883 13.116 99.2122 12.72 100.916 12.72C102.62 12.72 104.144 13.116 105.488 13.908C106.856 14.676 107.924 15.732 108.692 17.076C109.484 18.396 109.88 19.896 109.88 21.576C109.88 23.28 109.484 24.816 108.692 26.184C107.924 27.528 106.856 28.584 105.488 29.352C104.144 30.12 102.62 30.504 100.916 30.504C99.2122 30.504 97.6883 30.12 96.3443 29.352C95.0003 28.584 93.9323 27.528 93.1403 26.184C92.3723 24.816 91.9883 23.28 91.9883 21.576ZM95.6963 21.612C95.6963 23.292 96.1763 24.672 97.1363 25.752C98.1203 26.808 99.3802 27.336 100.916 27.336C101.924 27.336 102.824 27.096 103.616 26.616C104.408 26.112 105.032 25.428 105.488 24.564C105.944 23.7 106.172 22.716 106.172 21.612C106.172 20.484 105.944 19.5 105.488 18.66C105.056 17.796 104.444 17.124 103.652 16.644C102.86 16.14 101.96 15.888 100.952 15.888C99.4162 15.888 98.1562 16.428 97.1722 17.508C96.1882 18.564 95.6963 19.932 95.6963 21.612Z" fill="#0C0830"/>
<path d="M113.383 5.988H117.019V30H113.383V5.988Z" fill="#0C0830"/>
<path d="M121.363 5.988H124.999V30H121.363V5.988Z" fill="#0C0830"/>
<path d="M128.624 21.648C128.624 19.92 128.984 18.384 129.704 17.04C130.424 15.696 131.408 14.64 132.656 13.872C133.928 13.104 135.38 12.72 137.012 12.72C138.668 12.72 140.108 13.116 141.332 13.908C142.58 14.676 143.552 15.768 144.248 17.184C144.944 18.576 145.292 20.196 145.292 22.044V22.728H132.26C132.404 24.192 132.956 25.344 133.916 26.184C134.9 27.024 136.196 27.444 137.804 27.444C139.748 27.444 141.488 26.772 143.024 25.428L144.824 27.696C143.96 28.584 142.892 29.28 141.62 29.784C140.348 30.264 139.004 30.504 137.588 30.504C135.812 30.504 134.252 30.132 132.908 29.388C131.564 28.644 130.508 27.612 129.74 26.292C128.996 24.948 128.624 23.4 128.624 21.648ZM141.692 20.172C141.548 18.828 141.068 17.772 140.252 17.004C139.46 16.236 138.416 15.852 137.12 15.852C135.776 15.852 134.672 16.248 133.808 17.04C132.944 17.808 132.428 18.852 132.26 20.172H141.692Z" fill="#0C0830"/>
<path d="M148.715 13.26H152.099L152.243 15.744C152.747 14.784 153.479 14.04 154.439 13.512C155.399 12.984 156.503 12.72 157.751 12.72C160.343 12.72 162.071 13.824 162.935 16.032C163.487 14.976 164.267 14.16 165.275 13.584C166.307 13.008 167.507 12.72 168.875 12.72C170.867 12.72 172.415 13.344 173.519 14.592C174.623 15.816 175.175 17.556 175.175 19.812V30H171.539V20.244C171.539 18.828 171.239 17.76 170.639 17.04C170.063 16.296 169.223 15.924 168.119 15.924C166.799 15.924 165.743 16.416 164.951 17.4C164.183 18.384 163.799 19.704 163.799 21.36V30H160.163V20.244C160.163 17.364 158.999 15.924 156.671 15.924C155.351 15.924 154.295 16.416 153.503 17.4C152.735 18.384 152.351 19.704 152.351 21.36V30H148.715V13.26Z" fill="#0C0830"/>
<path d="M52.0001 31.9995H42.8332L32.7966 15.2773V0.000325521L52.0001 31.9995Z" fill="#018B00"/>
<path d="M32.7948 0V15.2766L30.584 18.9599L26.002 26.5984L21.4157 18.9638L32.7948 0Z" fill="#13B712"/>
<path d="M0 32.0002H9.16649L19.2034 15.2779V0.000976562L0 32.0002Z" fill="#018B00"/>
<path d="M19.2055 0V15.2766L21.4163 18.9599L25.9983 26.5984L30.5846 18.9638L25.9983 11.3215L19.2055 0Z" fill="#13B712"/>
<path d="M30.584 18.9599L26.0009 11.3215L25.9995 11.3243L25.9983 11.3215L21.4163 18.9599L13.59 31.9989H22.7586L25.9983 26.5984L25.9995 26.5956L26.0009 26.5984L29.2405 31.9989H38.4091L30.584 18.9599Z" fill="#018B00"/>
</g>
</svg>
