<svg width="53" height="32" viewBox="0 0 53 32" fill="none" xmlns="http://www.w3.org/2000/svg">
<g clip-path="url(#clip0_372_2582)">
<path d="M63.16 13.26H66.544L66.688 15.744C67.192 14.784 67.924 14.04 68.884 13.512C69.844 12.984 70.948 12.72 72.196 12.72C74.788 12.72 76.516 13.824 77.38 16.032C77.932 14.976 78.712 14.16 79.72 13.584C80.752 13.008 81.952 12.72 83.32 12.72C85.312 12.72 86.86 13.344 87.964 14.592C89.068 15.816 89.62 17.556 89.62 19.812V30H85.984V20.244C85.984 18.828 85.684 17.76 85.084 17.04C84.508 16.296 83.668 15.924 82.564 15.924C81.244 15.924 80.188 16.416 79.396 17.4C78.628 18.384 78.244 19.704 78.244 21.36V30H74.608V20.244C74.608 17.364 73.444 15.924 71.116 15.924C69.796 15.924 68.74 16.416 67.948 17.4C67.18 18.384 66.796 19.704 66.796 21.36V30H63.16V13.26Z" fill="white"/>
<path d="M92.9883 21.576C92.9883 19.896 93.3723 18.396 94.1403 17.076C94.9323 15.732 96.0003 14.676 97.3443 13.908C98.6883 13.116 100.212 12.72 101.916 12.72C103.62 12.72 105.144 13.116 106.488 13.908C107.856 14.676 108.924 15.732 109.692 17.076C110.484 18.396 110.88 19.896 110.88 21.576C110.88 23.28 110.484 24.816 109.692 26.184C108.924 27.528 107.856 28.584 106.488 29.352C105.144 30.12 103.62 30.504 101.916 30.504C100.212 30.504 98.6883 30.12 97.3443 29.352C96.0003 28.584 94.9323 27.528 94.1403 26.184C93.3723 24.816 92.9883 23.28 92.9883 21.576ZM96.6963 21.612C96.6963 23.292 97.1763 24.672 98.1363 25.752C99.1203 26.808 100.38 27.336 101.916 27.336C102.924 27.336 103.824 27.096 104.616 26.616C105.408 26.112 106.032 25.428 106.488 24.564C106.944 23.7 107.172 22.716 107.172 21.612C107.172 20.484 106.944 19.5 106.488 18.66C106.056 17.796 105.444 17.124 104.652 16.644C103.86 16.14 102.96 15.888 101.952 15.888C100.416 15.888 99.1562 16.428 98.1722 17.508C97.1882 18.564 96.6963 19.932 96.6963 21.612Z" fill="white"/>
<path d="M114.383 5.988H118.019V30H114.383V5.988Z" fill="white"/>
<path d="M122.363 5.988H125.999V30H122.363V5.988Z" fill="white"/>
<path d="M129.624 21.648C129.624 19.92 129.984 18.384 130.704 17.04C131.424 15.696 132.408 14.64 133.656 13.872C134.928 13.104 136.38 12.72 138.012 12.72C139.668 12.72 141.108 13.116 142.332 13.908C143.58 14.676 144.552 15.768 145.248 17.184C145.944 18.576 146.292 20.196 146.292 22.044V22.728H133.26C133.404 24.192 133.956 25.344 134.916 26.184C135.9 27.024 137.196 27.444 138.804 27.444C140.748 27.444 142.488 26.772 144.024 25.428L145.824 27.696C144.96 28.584 143.892 29.28 142.62 29.784C141.348 30.264 140.004 30.504 138.588 30.504C136.812 30.504 135.252 30.132 133.908 29.388C132.564 28.644 131.508 27.612 130.74 26.292C129.996 24.948 129.624 23.4 129.624 21.648ZM142.692 20.172C142.548 18.828 142.068 17.772 141.252 17.004C140.46 16.236 139.416 15.852 138.12 15.852C136.776 15.852 135.672 16.248 134.808 17.04C133.944 17.808 133.428 18.852 133.26 20.172H142.692Z" fill="white"/>
<path d="M149.715 13.26H153.099L153.243 15.744C153.747 14.784 154.479 14.04 155.439 13.512C156.399 12.984 157.503 12.72 158.751 12.72C161.343 12.72 163.071 13.824 163.935 16.032C164.487 14.976 165.267 14.16 166.275 13.584C167.307 13.008 168.507 12.72 169.875 12.72C171.867 12.72 173.415 13.344 174.519 14.592C175.623 15.816 176.175 17.556 176.175 19.812V30H172.539V20.244C172.539 18.828 172.239 17.76 171.639 17.04C171.063 16.296 170.223 15.924 169.119 15.924C167.799 15.924 166.743 16.416 165.951 17.4C165.183 18.384 164.799 19.704 164.799 21.36V30H161.163V20.244C161.163 17.364 159.999 15.924 157.671 15.924C156.351 15.924 155.295 16.416 154.503 17.4C153.735 18.384 153.351 19.704 153.351 21.36V30H149.715V13.26Z" fill="white"/>
<path d="M53.0001 31.9995H43.8332L33.7966 15.2773V0.000325521L53.0001 31.9995Z" fill="white"/>
<path d="M33.7948 0V15.2766L31.584 18.9599L27.002 26.5984L22.4157 18.9638L33.7948 0Z" fill="#34A233"/>
<path d="M1 32.0002H10.1665L20.2034 15.2779V0.000976562L1 32.0002Z" fill="white"/>
<path d="M20.2055 0V15.2766L22.4163 18.9599L26.9983 26.5984L31.5846 18.9638L26.9983 11.3215L20.2055 0Z" fill="#34A233"/>
<path d="M31.584 18.9599L27.0009 11.3215L26.9995 11.3243L26.9983 11.3215L22.4163 18.9599L14.59 31.9989H23.7586L26.9983 26.5984L26.9995 26.5956L27.0009 26.5984L30.2405 31.9989H39.4091L31.584 18.9599Z" fill="white"/>
</g>
<defs>
<clipPath id="clip0_372_2582">
<rect width="53" height="32" fill="white"/>
</clipPath>
</defs>
</svg>
