<svg width="96" height="96" viewBox="0 0 96 96" fill="none" xmlns="http://www.w3.org/2000/svg">
<g id="pdf">
<path id="Vector" d="M24 0C20.7 0 18 2.7 18 6V90C18 93.3 20.7 96 24 96H84C87.3 96 90 93.3 90 90V24L66 0H24Z" fill="#E2E5E7"/>
<path id="Vector_2" d="M72 24H90L66 0V18C66 21.3 68.7 24 72 24Z" fill="#B0B7BD"/>
<path id="Vector_3" d="M78 78C78 79.65 76.65 81 75 81H9C7.35 81 6 79.65 6 78V48C6 46.35 7.35 45 9 45H75C76.65 45 78 46.35 78 48V78Z" fill="#F15642"/>
<g id="Group">
<path id="Vector_4" d="M19.0769 56.8411C19.0769 56.0491 19.7009 55.1851 20.7059 55.1851H26.2469C29.3669 55.1851 32.1749 57.2731 32.1749 61.2751C32.1749 65.0671 29.3669 67.1791 26.2469 67.1791H22.2419V70.3471C22.2419 71.4031 21.5699 72.0001 20.7059 72.0001C19.9139 72.0001 19.0769 71.4031 19.0769 70.3471V56.8411ZM22.2419 58.2061V64.1821H26.2469C27.8549 64.1821 29.1269 62.7631 29.1269 61.2751C29.1269 59.5981 27.8549 58.2061 26.2469 58.2061H22.2419Z" fill="white"/>
<path id="Vector_5" d="M36.8728 71.9999C36.0808 71.9999 35.2168 71.5679 35.2168 70.5149V56.8889C35.2168 56.0279 36.0808 55.4009 36.8728 55.4009H42.3658C53.3278 55.4009 53.0878 71.9999 42.5818 71.9999H36.8728ZM38.3848 58.3289V69.0749H42.3658C48.8428 69.0749 49.1308 58.3289 42.3658 58.3289H38.3848Z" fill="white"/>
<path id="Vector_6" d="M56.9759 58.521V62.334H63.0929C63.9569 62.334 64.8209 63.198 64.8209 64.035C64.8209 64.827 63.9569 65.475 63.0929 65.475H56.9759V70.512C56.9759 71.352 56.3789 71.997 55.5389 71.997C54.4829 71.997 53.8379 71.352 53.8379 70.512V56.886C53.8379 56.025 54.4859 55.3979 55.5389 55.3979H63.9599C65.0159 55.3979 65.6399 56.025 65.6399 56.886C65.6399 57.654 65.0159 58.518 63.9599 58.518H56.9759V58.521Z" fill="white"/>
</g>
</g>
</svg>
