<svg width="92" height="92" viewBox="0 0 92 92" fill="none" xmlns="http://www.w3.org/2000/svg">
<g id="open-book">
<g id="Vector">
<path d="M42.166 19.8787C34.7293 17.3557 13.9757 12.4709 8.78918 17.5581C8.07678 18.2546 7.67331 19.1973 7.66602 20.1823V67.7932C7.66603 68.4513 7.84317 69.0977 8.17962 69.6676C8.51607 70.2375 8.99999 70.7107 9.58272 71.0398C10.1655 71.3688 10.8265 71.542 11.4994 71.542C12.1723 71.542 12.8333 71.3688 13.416 71.0397C17.4755 69.9526 37.4318 73.9414 42.166 76.6631V19.8787Z" fill="#018B00"/>
<path d="M83.2095 17.5581C78.0192 12.4746 57.2693 17.3557 49.8327 19.8787V76.6668C54.563 73.9451 74.504 69.9601 78.5827 71.0435C79.1657 71.3727 79.8271 71.5459 80.5003 71.5457C81.1735 71.5456 81.8348 71.372 82.4176 71.0426C83.0005 70.7131 83.4843 70.2393 83.8205 69.6689C84.1567 69.0985 84.3333 68.4516 84.3327 67.7932V20.1823C84.3254 19.1973 83.9219 18.2546 83.2095 17.5581Z" fill="#018B00"/>
</g>
</g>
</svg>
